<svg xmlns="http://www.w3.org/2000/svg"  viewBox="0 0 50 50" width="50px" height="50px"><path d="M 13 4 C 8.0414839 4 4 8.0414839 4 13 L 4 37 C 4 41.958516 8.0414839 46 13 46 L 37 46 C 41.958516 46 46 41.958516 46 37 L 46 13 C 46 8.0414839 41.958516 4 37 4 L 13 4 z M 13 6 L 37 6 C 37.355032 6 37.659445 6.150633 38 6.2011719 L 38 43.798828 C 37.659445 43.849367 37.355032 44 37 44 L 13 44 C 9.1225161 44 6 40.877484 6 37 L 6 13 C 6 9.1225161 9.1225161 6 13 6 z M 40 6.7304688 C 42.352068 7.856447 44 10.209434 44 13 L 44 14 L 40 14 L 40 6.7304688 z M 22 12 C 14.832139 12 9 17.832144 9 25 C 9 32.167856 14.832139 38 22 38 C 29.167861 38 35 32.167856 35 25 C 35 17.832144 29.167861 12 22 12 z M 22 14 C 28.086982 14 33 18.913022 33 25 C 33 27.822097 31.934808 30.383342 30.195312 32.328125 C 28.169802 30.27163 25.239791 29 22 29 C 18.758932 29 15.833876 30.276672 13.808594 32.333984 C 12.066333 30.388584 11 27.824608 11 25 C 11 18.913022 15.913018 14 22 14 z M 40 16 L 44 16 L 44 24 L 40 24 L 40 16 z M 22 18 C 20.416667 18 19.101892 18.629756 18.251953 19.585938 C 17.402014 20.542119 17 21.777778 17 23 C 17 24.222222 17.402014 25.457882 18.251953 26.414062 C 19.101892 27.370244 20.416667 28 22 28 C 23.583333 28 24.898108 27.370244 25.748047 26.414062 C 26.597986 25.457881 27 24.222222 27 23 C 27 21.777778 26.597986 20.542118 25.748047 19.585938 C 24.898108 18.629756 23.583333 18 22 18 z M 22 20 C 23.083333 20 23.768559 20.370244 24.251953 20.914062 C 24.735347 21.457881 25 22.222222 25 23 C 25 23.777778 24.735347 24.542118 24.251953 25.085938 C 23.768559 25.629756 23.083333 26 22 26 C 20.916667 26 20.231441 25.629756 19.748047 25.085938 C 19.264653 24.542119 19 23.777778 19 23 C 19 22.222222 19.264653 21.457882 19.748047 20.914062 C 20.231441 20.370244 20.916667 20 22 20 z M 40 26 L 44 26 L 44 34 L 40 34 L 40 26 z M 22 31 C 24.694386 31 27.092805 32.055926 28.730469 33.695312 C 26.87065 35.135558 24.540932 36 22 36 C 19.4616 36 17.134304 35.136865 15.275391 33.699219 C 16.913049 32.060657 19.305741 31 22 31 z M 40 36 L 44 36 L 44 37 C 44 39.790566 42.352068 42.143553 40 43.269531 L 40 36 z"/></svg>